<?xml version="1.0" standalone="no"?>
<!DOCTYPE svg PUBLIC "-//W3C//DTD SVG 20010904//EN"
 "http://www.w3.org/TR/2001/REC-SVG-20010904/DTD/svg10.dtd">
<svg version="1.0" xmlns="http://www.w3.org/2000/svg"
 width="1276.000000pt" height="1276.000000pt" viewBox="0 0 1276.000000 1276.000000"
 preserveAspectRatio="xMidYMid meet">
<metadata>
Created by potrace 1.14, written by Peter Selinger 2001-2017
</metadata>
<g transform="translate(0.000000,1276.000000) scale(0.100000,-0.100000)"
fill="#000000" stroke="none">
<path d="M6075 12754 c-27 -2 -115 -8 -195 -14 -542 -41 -1131 -167 -1653
-356 -1056 -383 -1997 -1040 -2713 -1896 -1991 -2379 -1991 -5837 0 -8216 716
-856 1657 -1513 2713 -1896 517 -187 1052 -303 1653 -358 176 -16 814 -16 990
0 601 55 1136 171 1653 358 1056 383 1997 1040 2713 1896 1653 1976 1962 4742
785 7033 -737 1434 -1982 2530 -3498 3079 -512 185 -1057 304 -1638 356 -119
11 -714 21 -810 14z"/>
</g>
</svg>
